<?xml version="1.0" encoding="UTF-8"?>
<svg id="Layer_1" xmlns="http://www.w3.org/2000/svg" version="1.1" viewBox="0 0 2390.21 976.93">
  <!-- Generator: Adobe Illustrator 29.0.0, SVG Export Plug-In . SVG Version: 2.1.0 Build 186)  -->
  <defs>
    <style>
      .st0 {
        fill: #3d99c6;
      }

      .st1 {
        fill: #3a7a54;
      }

      .st2 {
        fill: #98bd41;
      }

      .st3 {
        fill: #d53b24;
      }

      .st4 {
        fill: #f0a124;
      }

      .st5 {
        fill: #9cc23e;
      }

      .st6 {
        fill: #f3ad33;
      }

      .st7 {
        fill: #4496d0;
      }

      .st8 {
        fill: #db4129;
      }

      .st9 {
        fill: #367a50;
      }

      .st10 {
        fill: #99bb3d;
      }

      .st11 {
        fill: #c8412c;
      }

      .st12 {
        fill: #4191d3;
      }

      .st13 {
        fill: #d44026;
      }

      .st14 {
        fill: #3f7752;
      }

      .st15 {
        fill: #33714c;
      }

      .st16 {
        fill: #97bb3d;
      }

      .st17 {
        fill: #db3d28;
      }

      .st18 {
        fill: #36704b;
      }

      .st19 {
        fill: #3b9abd;
      }

      .st20 {
        fill: #3ba897;
      }

      .st21 {
        fill: #33754d;
      }

      .st22 {
        fill: #f4a62b;
      }

      .st23 {
        fill: #3da997;
      }

      .st24 {
        fill: #d94129;
      }

      .st25 {
        fill: #3d94cf;
      }

      .st26 {
        fill: #3d8dcc;
      }

      .st27 {
        fill: #9cbc42;
      }

      .st28 {
        fill: #32714e;
      }

      .st29 {
        fill: #4590cd;
      }

      .st30 {
        fill: #cc402d;
      }

      .st31 {
        fill: #9dc03e;
      }

      .st32 {
        fill: #fdfae8;
      }
    </style>
  </defs>
  <path class="st23" d="M1144.91,865.61c-.86,4.3-5.5,6.86-9.58,7.41-9.78,1.32-37.92,1.21-47.9.09-6.68-.75-10.94-4.09-12.25-10.73l-.26-233.56c-.04-4.68,7.33-10.71,11.57-11.41,7.63-1.27,35.75-.97,43.93-.06,9.38,1.05,13.15,9.87,17.9,17.07,12.84,19.45,25.25,39.37,37.98,58.94,11.01,16.93,21.15,34.69,33.08,50.86.81-.48,1.33-2.61,1.32-3.46-.41-33.83-3.67-74.71-.86-107.96.81-9.62,5.77-14.63,15.49-15.49,9.71-.86,32.55-1.11,41.94.13,12.4,1.63,14.79,9.2,15.62,20.36,5.12,68.55-4.77,142.8,1.01,211.79-.45,4.6.79,9.88-.74,14.3-.62,1.79-9.4,7.95-11.48,8.55-4.08,1.18-18.05,1.56-23.28,1.71-6.59.2-25.07.95-30.08-1.99-1.2-.7-6.95-7.96-8.28-9.71-26.13-34.25-48.24-75.85-71.7-112.16l-3.44-2.06v117.39Z"/>
  <path class="st18" d="M2210.11,621.68c1.89,2.15,3.02,5.29,3.35,8.15,2.44,21.47.42,56.06-.53,78.43-.06,1.38-.91,1.73,1.03,2.97,13.4-16.82,27.8-32.86,41.45-49.46,6.64-8.07,32.78-44.82,39.98-47.02,3.17-.97,6.66,1.15,9.7,2.41,11.45,4.77,41.8,20.74,44.89,33.14.26,1.05.58,1.96.01,3.01-20.5,28.97-44.24,55.58-66.24,83.41l75.16,107.32c.61,3.21-10.54,10.71-13.39,12.7-8.71,6.08-36.59,22.55-46.52,21.33-1.45-.18-2.38-.79-3.55-1.53-8.82-5.59-32.29-46.23-40.21-57.71-5.9-8.55-15.34-24.11-21.93-31.03-2.15-2.25-2.47-2.26-4.94-.19-2.48,5.7-14.55,13.09-15.71,18.26-1.66,7.34-.4,28.02-.25,36.8.16,9.88,5.56,26.46-7.9,29.98-9.8,2.56-35.85,2.32-46.57,1.48-15.23-1.19-15.67-5.39-16.51-19.47l.26-228.62c.72-3.21,5.29-6.72,8.24-7.75,5.17-1.81,45-1.83,52.05-.97,2.58.31,6.44,2.44,8.13,4.36Z"/>
  <path class="st4" d="M942.99,409.53c.19-6.31,10.92-9.97,15.92-10.53,32.39-.76,64.95-.68,97.69.24,19.22-.42,25.28-4.19,37.03-18.47,32.87-42.75,67.49-87.95,100.38-131.61.57-.75,1.34-1.35,2.15-1.93s1.76-1.09,2.7-1.54l.93-2h61.83l1.21,2c3.16,2.24,2.83,5.86,0,8.99.53,26.97-1.89,53.94-1,80.93-7.36-1.02-18.9-3.71-26.28-1.97-.67.16-.74,1.45-1.06,1.58-6.95,2.67-13.67,5.85-14.51,14-2.55,24.7-.48,60.58.91,85.75.27,4.93-.48,10,.06,14.92.63,5.69,4.05,10.87,3.9,16.59-87.44-.29-174.81-1.51-262.33-1.06-22.43-5.73-31.64-38.76-19.56-55.88Z"/>
  <path class="st24" d="M2000.55,735.23c.28.78.41,2.03-.09,2.17-4.48,1.29-27.08,1.9-29.5-1.33-.38-.5-.58-1.08-.63-1.7.38-16.87-.14-15.73-1.56,3.42,12.24,7.97-2.18,15-7.33,5.13-2.94.25-4.04-1.52-5.26-3.73-7.63,2.3-11.66.98-12.08-3.94-8.61-1.65-10.34-5.23-2.37-10.37-3.71-3.55-3.97-6.27,1.55-7.85-5.58-2.24-9.57-11.29-1.43-12.1-.37-2.69.81-4.95,3.55-6.79.56-11.42,3.76-21.39,9.58-29.9.67-5.54,1.78-9.3,6.61-12.5l2.73-8.42c-.17-5.66,1.38-8.75,7.51-8,1.48-5.29,6.83-9.65,10.41-3.83,2.31-7.54,9.86-7.64,16.68-7.09,8.06-1.88,15.89-4.57,23.48-8.08,10.76,4.23,21.95,7.72,33.51,8.82,11.56,7.75,27.02,18.86,24.8,34.56,4.94-.48,6.75,2.7,5.43,9.54,4.57-.52,6.79,2.54,6.66,9.18.5.87,7.83,10.14,7.87,9.52-1-4.69-.4-7.59,1.8-8.68,6.67,28,.07,67.76-23.07,87.34-2.17,1.84-11.85,7.06-11.76,8.87,3.12,9.44,44.08,69.77,42.36,73.65-1.83,4.15-26.84,14.72-32.27,16.71-6.4,2.36-24.65,8.78-30.53,7.03-2.88-.85-10.88-13.8-12.87-17.1-12.41-20.56-22.59-44.15-34.07-65.36l-2.34-.93c-4.11,1.83-22.31-.75-23.96,1.61-.89,1.28-.56,19.23-.48,22.58.31,12.6,1.22,25.18,1.06,37.94-.02,1.69.64,4.44-1.02,5.48-.59.84-.92,2.51-1,5-1.39,3.44-2.54,4.78-6,5.99-15.1-1.16-30.25-1.12-45.47.11-1.94-.06-10.15-.59-11.1-1.29-1.53-1.12-2.5-20.08,4.45-19.07,1.81-6.2,4.44-5.87,9.73-3.68,12.93.32,20.79-7.57,27.91-17.22-.39-7.88,2.9-23.59,10.97-11.82,4.52-.23,8.14,2.87,9.51,7.02-.45-.18-.74-.51-1.01-.9-1.54-2.24-1.29-26.09-.99-30.62l2-1.45c.04-1.89,1.28-2.6,3.73-2.11-3.35.15-6.15-1.37-8.38-4.57-12.34.61-1.86-7.07,4.84-8.75-.04-6.16,1.85-9.75,5.65-10.78l.67-1.99c-10.55-7.99-1.59-22.74,10.75-22.69,9.59,3.95,30.07-6.17,35.08-13.71.17-.25-.04-.76-.37-1.34l-.41-2.66c11.94-16.57,5.67-40.56-15.31-45.05l-.77-2.25c0,.78-.19,1.97-.68,2-4.5.28-29.47.82-32,0-.98-.32-1.47-.69-1.81-2l2.02.88,1.08,54.06c7.15,1.3,14.63,1.65,22.42,1.06l1.47,1.95Z"/>
  <path class="st26" d="M717.09,808.16c20.12.51,40.39-.68,60.52-.04,6.46.2,15.79.39,21.97,1.04,6.58.7,5.64,5.63,6.35,11.62,1.27,10.7,2.05,25.98,1.75,36.67-.28,10.05-1.98,15.72-13.08,16.69-30.7,2.71-69.75-.3-100.96-1.08-10.25-.26-31.11,1.89-39.52-1.46-6.19-2.46-8.47-6.49-9.04-12.94-3.08-34.82.32-78.08.08-113.98-.25-38.75-1.96-77.94-1.06-116.87.34-4.78,4.89-8.66,9.2-9.78,5.51-1.43,46.24-1.75,52.25-.64,3.2.59,8.86,4.8,9.88,8.11,1.81,5.88.4,16.64.67,23.3.08,1.93.97,3.84,1.03,5.96,1.48,51.04-1.22,102.4-.04,153.4Z"/>
  <path class="st25" d="M1247.36,399.54c9.78,1.2,17.62,11.42,25.8,16.18,13.13,7.65,31.75,8.57,44.99.63,7.23-4.34,12.08-11.34,20.69-14.29,29.82-10.21,37.79,23.84,71.33,20.34,19.55-2.04,27.96-19.97,41.19-21.77,31.21-4.24,37.4,27.86,70.63,20.64,20.69-4.49,26.17-26.21,51.78-19.27,12.25,3.32,21.59,15.9,34.14,19.82,10.05,3.14,21.21-.49,31.79.7-1.07,8.32.52,22.2-1.68,29.8s-13.81,14.96-21.78,15.19h-362.92c-8.87.08-22.45-12.96-22.45-21.52v-43.96c0-.13.87-2.5,1-2.5,4.76,0,10.99-.55,15.49,0Z"/>
  <path class="st22" d="M1002.55,637.76c16.59,13.78,28.82,35.68,34.13,56.28,2.97,11.53,6.66,36.1,3.8,47.21-4.01,15.61-25.04,24.49-39.91,22.83-14.7-1.64-33.55-17.62-35.54-32.41-1.59-11.84.33-21.88-5.18-33.79-10.6-22.92-48.75-26.04-63.17-5.38-10.4,14.91-4.79,31.5-10.28,45.65-.97,2.51-13.61,15.29-16.13,17.02-17.31,11.83-41.44,11.06-52.24-8.46-14.49-26.22,2.14-72.07,19.04-94.64,37.16-49.64,119.24-52.73,165.47-14.32Z"/>
  <path class="st8" d="M1522.75,243.69v109.4c0,1.54-7.06,4-8.74,4.25-14.13,2.15-24.97-13.7-37.03-19.45-14.32-6.83-29.46-5.41-42.89,2.52-6.85,4.05-14.55,13.62-21.01,15.97-24.85,9.02-32.94-19.65-57.04-23.49-1.81-.29-8.22.13-8.22-.28v-88.42l174.93-.5Z"/>
  <path class="st14" d="M1231.87,388.55c-.73-.73.08-17.57.04-20.52-.09-6.48-3.75-17.77,4.25-21.65,18.36-8.9,28.97,12.68,42.31,19.07,9.43,4.52,21.31,4.82,31.04,1.3,11.78-4.26,19.99-16.88,31.51-20.45,28.66-8.88,31.29,17.16,52.55,22,34.49,7.86,36.07-26.53,69.7-22.7,18.62,2.12,24.3,24.05,49.03,23.02,30.22-1.25,34.54-36.65,72.11-17.21,12.02,6.22,15.15,16.05,29.77,17.21,6.42.51,19.08-2.53,23.1,1.89,5.45,5.99.49,29.56,3,38.08-10.35,2.72-22.15,6.2-32.24,1.14-16.28-8.16-22.04-23.96-45.68-22.04-21.28,1.73-29.64,21.5-45.06,22.89-29.91,2.7-28.96-25.98-63-23-23.51,2.05-26.57,21.82-45.95,23-28.02,1.71-29.43-25.35-61.89-22.89-25.02,1.9-29.05,25.88-54.99,22.74-14.63-1.78-27.84-21.87-39.09-21.87-2.91,0-19.77.72-20.49,0Z"/>
  <path class="st17" d="M890.01,752.22c.89,1.05.8,20.12,1.13,23.35,2.36,23.62,20.28,38.47,44.12,33.35,19.37-4.15,25.96-22.5,27.71-40.24.2-2.07-.36-11.04.02-11.47,1.13-1.27,9.61,8.25,11.07,9.4,14.78,11.61,34.84,15.12,52.25,7.43,1.88-.83,11.93-7.65,12.63-6.85,1.92,2.18-4.89,28.69-6.29,33.17-17.01,54.58-58.06,80.41-115.15,76.71-47.02-3.05-83.09-26.52-95.98-72.92-1.27-4.58-7.87-36.42-6.49-37.97.69-.77,15.42,7.87,18.76,8.72,14.02,3.54,29.09.89,40.54-7.89,5.25-4.03,8.33-9.36,12.63-13.35.66-.61,2.33-2.28,3.02-1.46Z"/>
  <path class="st6" d="M1262.86,229.7c2.98,5.42-.72,7.62-11.12,6.59-18.63-.58-37.29-.92-55.51,1.33-5.01,3.54-9.32,8.08-12.94,13.62-31.8,44.3-64.72,87.38-98.76,129.27-9.24,12.83-23.53,13.79-38.34,12.62-13.46-1.3-26.88-1.83-40.28-1.57-4.62-3.67-7.61-9.01-8.95-16-.5-9.91-.56-26.52,12.47-28,12.21-1.39,28.11,1.81,39.94-.04,2.4-.37,6.64-2.91,8.46-4.53,5.85-5.2,15.93-17.78,21.03-24.17,29.49-36.99,55.88-78.08,86.08-114.33,2.74-3.29,6.63-6.19,8.93-10.27,29-2.52,58.21-1.28,87.33-1.35.5.12.91.37,1.2.8,1.03,1.48.7,31.64.44,36.03Z"/>
  <path class="st12" d="M1246.86,150.77c-1.22,1.15-29.46.28-33.52.05-3.22-.18-13.66-1.06-15.42-2.57s-2.69-4.93-5.55-7.44c-29.57-25.91-79.77-15.67-102.26,14.63-20.79,28.01-11.73,59.17-12.62,91.29-10.93,14.95-22.96,29.08-33.96,43.98-1.27,1.72-6.94,13.47-9.56,10.92l-.05-108.44c6.3-98.51,130.81-148.27,197.47-71.41,2.97,3.43,18.74,25.9,15.48,28.98Z"/>
  <path class="st0" d="M244.29,768.2c4.52-.86,33.66,1.15,34.98,0,.74-.64-1.07-3.09-2.03-3.53-1.55-.71-9.31.18-12.25-.67-.68-.19-5.42-3.83-5.63-4.37-1.05-2.61,1.39-2.08,1.84-3.18,3.18-7.64,3.78-5.02,6.53-9.27,2.9-4.48-1.33-6.87,6.93-5.84,2.17.27,10.18.84,10.89,1.03,1.89.5,2.71,3.64,5.26,3.89s11.57-5.1,15.19-5.79c7.7-1.48,6.2,1.91,10.33,4.19,1.93,1.06,4.56.65,6.48,2.51,1.75,1.7,1.24,4.02,4.07,5.92.61.41,7.66,3.89,8.1,3.98,2,.39,5.63-1.37,6.26-.85.17.14-1.11,2.1-1,3.41.05.6,1.82,5.39,2.06,5.56.55.38,2.48-1.07,3.36-.91,1.79.32,1.58,4.73,2.35,6.63,4.39,10.84,6.47,17.93,9.9,29.07,1.32,4.28,5.13,8.89,4.34,13.62-.41,2.44-3.11,2.83-3.01,5.91.11,3.42,3.47,6.64,4.99,9.62-19.46,56.2-101.68,46.57-149.45,45.97-1.69-.02-4.44.64-5.48-1.02,25.97.25,51.99-.18,77.96-.01.23-1.74-2.27-.94-3.48-.99-9.8-.4-21.56,1.08-30.94-.05-1.77-.22-3.22-1.57-5.14-1.86-2.44-.36-12.94-.61-13.41-1.08-.38-.38.39-5.63,0-6-1.4-1.36-6.44,1.77-8.44,2.05-2.22.31-14.5.64-14.53-2.55-.02-2.89,13.14-.75,13.97-1.5.91-.82-1.68-2.61-1.56-4.05.41-4.78,5.78-8.81,5.64-15.42-.08-4.06-5.13-14.03-5.05-15,.06-.68,6.83-3.27,7.47-5.48.18,4.24,2.71,7.16,5.58,2.52,1.12-1.81-.69-4.92-.09-5.52.65-.65,5.02,1.53,4.01-2-1.44.24-6,.03-6-1.5v-38.96c0-.18-1.95-1.24-2.04-2.99,2.08-.6,2.07-2.5,3.04-3.51l2.09,1.15c-.67,14.56-.38,28.98.86,43.27,12.31-.2,24.7-.39,37.17-.56,19.67-2.21,23.68-28.17,9.05-39.29l-.19-2.58c1.82-1.38-2.29-2.37-4-2l-1.8,1.57c-11.71-.7-23.41-1.09-35.09-1.17l-.1-2.4Z"/>
  <path class="st21" d="M1273.85,206.72c.04-2.82-.9-18.98,1.5-18.98h60.47c.66,43.77-.87,87.65-.04,131.42.09,4.7,2.49,10.28.38,15.22-.42.98-10.08,6.16-12.25,7.8-6.28,4.76-13.31,14.04-21.64,15.34-12.26,1.92-25.68-1.68-28.43-14.93-2.66-45.39-2.66-90.68,0-135.87Z"/>
  <path class="st29" d="M962.99,389.55c-.08-2.4-1.93-7.22-2.04-10.45-1.32-38.29,8.65-63.02,50.48-65.52,6.25-.37,14.05.89,19.97-.02,6.48-1,17.96-15.96,22.53-21.44,27.1-32.5,50.8-69.18,77.6-102.28,7.23-8.93,15.27-20.2,26.03-24.94,16.43-7.23,58.08-5.26,76.84-4.15,2.39.14,13.81-.39,14.39.11.95.82,3.58,18.92,4.1,21.88-20.5.99-41.02-1.95-61.52-1.04-4.71.21-13.57.52-17.72,1.27-8.14,1.48-18.38,16.75-23.68,23.29-17.82,21.96-33.81,45.45-51.05,67.87-12.79,16.63-31.04,43.85-45.41,57.52-1.3,1.24-6.7,5.66-8.06,5.93-16.36,3.15-41.2-6.79-53.46,9.51-10.12,13.46-8,27.34-1,41.46l-.82,1.22c-8.88.15-16.81.66-24.98,1.68l-2.18-1.9Z"/>
  <path class="st13" d="M1594.22,188.74l1.49,155.85c-4.87-1.51-8.85-4.96-13.73-6.75-15.75-5.78-26.55-3.96-40.94,3.56-.88.46-7.3,6.37-7.3,2.69v-153.86c0-.11,1.39-1.5,1.5-1.5h58.98Z"/>
  <rect class="st7" x="1347.82" y="186.65" width="174.93" height="45.05"/>
  <path class="st5" d="M1651.69,379.06c.87-7.01,4.64-10.96,9.47-15.51,11.44-10.79,25.98-18.62,41.47-21.49,4.28-.79,22.26-3.63,23.89,1.17,2.05,6.07-5.77,31.31-8.41,38.28-9.74,25.79-30.84,48.44-54.11,62.8-3.95,2.44-7.76,5.06-12.31,6.18v-71.43Z"/>
  <path class="st16" d="M920.6,355.99c5.52,4.25,27.55,28.21,28.41,34.09.33,2.25-2.83,1.93-4.76,3.18-15.59,10.18-16.95,25.47-16.29,42.79.19,5.06,4.18,12.08-2.85,7.84-21.1-12.71-46.18-42.51-54.1-65.82-2.15-6.32-8.91-32.82-5.55-37.55.51-.71,9.43-1.99,11.01-1.97,12.66.14,34.04,9.67,44.12,17.43Z"/>
  <path class="st32" d="M1273.85,342.6c-1.81-8.75-.39-16.66-.99-25.48-1.12-16.47-3.53-33.22-4.05-49.9-.21-6.77,1.41-13.97,1.04-20-.57-9.27-6.25-5.87-5.05-.03.21,1.02,4.58-.78,3.07,3.83-.28.86-4.09,2.58-5.02,3.67-.03-1.46.45-8.99,0-8.99h-63.97c-5.9,8.42-11.74,17.1-18.05,25.19-24.75,31.67-49.29,64.19-73.84,95.49-10.25,13.07-21.19,32.63-39.51,34.21-32.85,2.84-69.74-2.3-102.98-.03-9.13.63-15.97,1.15-21.5,8.98-.41-10.38,5.29-7.9,11.24-10.01,1.09-.39,1.03-2.05,2.44-2.76,3.65-1.83,6.55.3,6.32-7.21,9.12-.62,19.16,1.29,27.99-1,.05.1,2.03,1.12.99,1.99-.78.66-17.19-.49-19.99.02,4.39,5.82,12.7,5.82,19.36,5.85,1.53,0,3.19-.93,5.09-.92,1.32,0,5.02,1.58,5.53,1.05,1.99-2.1-3.07-4.26-3.06-4.55.03-1.33,1.6-2.63,1.71-3.94.17-2.03-2.14-2.24-2.56-3.28-1.06-2.61-.94-6.39-1.08-9.21,2.68,1.8,6.08,13.42,8.73,13.94,5.15,1.02,13.99-.26,19.8,0,13.27.61,36.4,4.78,48.17-1.67,5.95-3.26,21.73-23.05,26.67-29.35,24.2-30.85,46.62-63.07,70.6-94.05,5.33-6.89,15.48-21.59,21.43-26.76,5.53-4.8,14.24-2.56,21.05-2.94,2.36-.13,4.55-1,6.91-1.08,5.9-.21,41,1.53,42.53.05.18-.17-.06-3.05,0-4,6.51,4.41-.16,6.07,0,6.49.46,1.15,5.61,2.92,6.49,1.54,4.18-6.61.4-23.63,4.51-31.01-.67,45.26.5,90.61,0,135.87Z"/>
  <path class="st10" d="M1658.45,277.89c2.1,2.18,5.07,21.25,5.28,25.2.52,9.62-.79,21.41-3.33,30.72-1.07,3.9-9.1,24.01-11.7,25.3-2.2,1.09-10.65-2.33-14.51-2.52-9.21-.44-26,6.07-27.5-7.49-2.6-23.45,1.61-42.46,20.01-57.98,4.48-3.78,26.96-18.21,31.76-13.24Z"/>
  <path class="st1" d="M1609.58,174.62c-27.89,3.59-56.67,2.05-84.89,1.7-7.62-2.49-7.03-26.55-4.43-32.52,1.02-2.34,2.07-4.11,4.94-4.05l82.87.19c1.72.56,2.54,10.6,2.68,13.31.38,7.2-.53,14.27-1.18,21.38Z"/>
  <path class="st9" d="M1349.58,175.52c-3.01,3.03-74.86.57-84.78.79-5.32-1.72-6.21-17.08-5.81-21.92.19-2.37,2.22-12.14,3.85-13.12l84.34-.34c4.26,1.43,4.99,31.99,2.4,34.59Z"/>
  <path class="st31" d="M958.56,288.07c3.98,3.35,17.65,17.75,17.36,22.11-.2,3.09-8.99,9.81-11.24,12.71-7.08,9.15-11.24,18-13.45,29.45-.67,3.48.16,9.52-1.27,12.59-1.82,3.93-9.58-8.3-10.35-9.48-11.04-16.88-18.38-36.7-16.5-57.19.31-3.4,5.02-24.15,7.52-24.68,6.42-1.35,22.86,10.22,27.92,14.49Z"/>
  <path class="st2" d="M1658.28,463.07c9.1-8.06,27.89-23.76,37.63-29.88,15.49-9.71,33.02-11.23,48.07.49,3.88,3.02,7.31,4.88,4.11,9.77-16.38,25.04-56.2,27.85-82.9,26.02-1.68-.12-9.84-1.1-10.52-1.47-2.41-1.29,2.84-4.26,3.6-4.93Z"/>
  <path class="st27" d="M908.59,443.92c5.59,4.36,14.3,11.29,18.83,16.6.6.71,2.47,1.68,1.57,2.96-.39.56-11.51,1.93-13.45,2.05-15.41.92-33.21,1.28-47.39-4.67-6.07-2.55-31.73-17.73-31.17-24.72.04-.47,6.42-6.32,6.81-6.58,24.62-15.8,45.57-.66,64.79,14.36Z"/>
  <path class="st11" d="M1339.83,129.8h-67.97l30.93-55.23c.43-.72,1.88-1.51,2.57-1.42,3.42.46,29.41,50.67,34.47,56.65Z"/>
  <path class="st30" d="M1597.72,128.8h-66.97c4.59-6.01,29.35-55.2,32.5-55.95,1.87-.44,4.4,4.3,5.29,5.69,10.44,16.25,19.54,33.54,29.18,50.26Z"/>
  <path class="st24" d="M2026.53,618.34c-25.46-1.97-53.52,1.29-79.26.21-.76.22-2.69,1.94-2.69,2.29,0,.39,4.71,5.73,5.04,5.94.39.25,8.06,3.21,8.66,3.34,2.12.44,12.52.41,13.28,1.22.47.49,0,2.84-.98,3.54-1.86,1.33-5.03-.78-7.44-.55-3.72.36-7.75,1.03-11.67,1.45-2.93.31-3.07,2.53-3.57,2.58-1.84.21-4.55-1.41-7.76-1-2.8.36-11.72,2.43-14.85,3.19-3.4.82-10.84,5.73-14.18,5.8-1.06.02-5.45-14.12-8.53-11.02.44,37.1-.96,74.39.8,111.39,1.9,34.59-5.24,79.33-.88,112.96.16,1.22,3.83,3.49,2.08,7.43-1.66-2.69-3.34-4.41-3.03-8.46.58-77.66-.99-155.55.79-233.06,2.77-3.41,5.96-7.96,10.72-8.27,35.99.34,72-.37,107.99,0,1.69.02,4.45-.64,5.48,1.02Z"/>
  <path class="st3" d="M1973.56,861.11c-.2,2.54.01,2.5-1,5l-.86-14.28,1.85-1.71c-.18,3.62.29,7.38,0,10.99Z"/>
  <path class="st15" d="M1877.05,855.16c-9.3-30.75-23.23-62.36-33.89-93-14.19-40.79-26.06-84.36-41.51-124.36-2.96-7.66-6.05-19.49-15.49-20.48l-68.78.23c-5.28,2.09-7.67,6.4-9.73,11.26-6.66,15.74-10.4,34.81-15.71,51.24-18.81,58.27-38.74,116.18-58.79,174.02-3.46,10.86,17.46,14.64,25.32,16.75,7.54,2.03,33.34,8.22,39.53,6.11,7.25-2.47,14.49-43.15,18.24-45.71,1.48-1.02,3.18-.97,4.87-1.12,16.82-1.54,38.98.07,55.98,1.09,3.89.23,13.65-1.04,16.13.87,1.94,1.49,11.05,32.7,14.23,38.73,1.73,3.27,3.31,5.98,7.1,6.88,7,1.67,30.44-4.39,38.47-6.64,5.82-1.63,20.52-5.71,24.61-9.43,1.61-1.46-.03-4.56-.59-6.43ZM1774.14,770.2h-40.48l18.5-76.93c1.81-.56,2.8,3.55,3.21,4.78,6.46,19.33,12.58,42.32,17.77,62.17.45,1.72,3.34,9.99,1,9.99Z"/>
  <path class="st20" d="M543.93,630.06c-2.6-8.05-7.8-12.01-16.22-12.76-19.73-1.76-42.02,1.41-62.04.02-9.97,1.17-14.64,22.03-17.49,30.47-10.12,30.03-18.17,60.81-27.95,90.96-11.33,34.94-25.6,69.9-36.03,104.86-1.15,3.84-4.97,14.47-3.5,17.5,2.39,4.92,42.1,14.64,49.25,15.74,2.65.41,9.33,1.34,11.66,1.21,5.72-.3,11-16.05,12.85-21.17,1.32-3.65,6.73-24.89,7.86-25.62l75.88.33c5.26,12.29,8.1,26.33,13.47,38.49.57,1.3,2.28,5.41,2.97,6.03,4.38,3.9,31.01-1.6,37.71-3.3,4.63-1.17,28.88-8.6,30.3-11.65-27.99-76.41-53.59-153.67-78.73-231.09ZM480.19,770.2l18.5-75.94c2.04-.42,1.41.79,1.95,2,.81,1.82,1.46,4.07,2.04,6,6.75,22.41,11.7,45.52,18.49,67.93h-40.98Z"/>
  <path class="st28" d="M1640.4,688.07c-18.34-92.06-122.5-66.18-190.9-69.5-5.41,1.78-10.04,6.39-10.75,12.24.04,65.27-.44,130.67,1.06,195.8.26,11.01-1.62,27.7.2,37.77,1.28,7.1,8.09,8.97,14.39,9.6,10.15,1,37.16,1.5,46.78.07,5.65-.84,10.64-4.72,11.47-10.52,2.4-16.84-3.36-40.19-.96-57.9.02-1.05.03-2.35.98-3.01,1.86-1.29,33.85-.15,39.54-.45,66.54-3.48,101.37-47.85,88.18-114.09ZM1553.01,739c-8.26,3.47-25.5,4.19-34.76,4.31-11.18.15-6.56-9.19-6.46-16.53.21-15.82-.24-31.68-.04-47.5,10.24,1.14,23.67-1.53,33.49,0,28.05,4.37,32.03,49.53,7.77,59.72Z"/>
  <path class="st19" d="M338.92,747.05c-1.82-1.01-10.63-4.32-10.64-5.33,0-.61,7.81-5.09,9.5-6.47,28.35-23.24,26.8-68.85,3.4-95.12-11.78-13.23-36.11-21.2-53.53-22.66-35.81-2.99-75.41,1.79-111.61.08-3.93,3.7-11.27,5.98-10.75,12.23l1.13,231.73c2.48,17.28,29.93,12.45,42.89,12.58,26.03,1.29,52.16,1.26,78.22.42,1.59-2.03.68-3.5-1.84-3.54l-29.12.39c-6.55-1.74-13.24-2.72-20.07-2.92.54-9.06-4.98-6.81-10.98-4.25l-1.32-.02c3.02-.76,3.57-2.96,1.62-6.61,6.77-10.66,6.53-17.92,1.04-29.27l3.83-2.12c3.5,5.78,9.67,1.32,8.94-4.36,5.76-2.56,4.32-4.62-4.34-6.16l.85-.67c-.21-13.13-.5-25.89-.85-38.29l1-6.49c2.39.35,6.66.33,8-2,11.99.28,24.01.58,36.06.91,6.5-5.59-11.1-8.12-14.62-6.95l-4.24-3.2c4.17-5.04,7.34-10.33,9.52-15.86l13.93,1.16c2.76,3.04,5.19,5.23,9.53,3.18,5.44-3.23,10.9-4.91,16.37-5.04,2.65,3.12,6.14,5.14,10.45,6.07,2.53,6.25,9.79,10.65,16.48,10.4,1.04,5.88,3.5,8.53,7.38,7.94,4.5,14.55,9.17,29.59,14.98,43.62l.12,3.09c-5.54,4.77-2.24,14.04,3.99,15.63,9.66-27.89,1.77-67.05-25.32-82.09ZM278.33,715.8c-3.47,1.67-13.08,2.3-17.5,2.49-3.8.16-22.39.39-24.1-1.98-.87-1.2-.57-21.17-.47-24.59.08-2.64,1.02-5.11,1.13-7.95.11-2.77-2.48-5.57.41-7.5h33.99c3.86,0,12.4,7.32,14.34,10.64,5.25,8.94,1.98,24.18-7.79,28.88Z"/>
  <path class="st3" d="M2102.5,683.28c-8.65-36.29-38.53-62.05-75.97-64.94-26.14-.91-53.11-1.38-79.37-.37-1.3.05-3.6.54-4.03,1.7-1.97,5.35,10.06,11.93,16.75,12.77-5.12.2-9.43,1.48-12.94,3.86-11.79-2.47-24.08,2.9-34.49,7.75-2.12-5.53-5.26-9.21-9.42-11.02-.15,67.75-.8,135.27-1.96,202.56-.74,11.28.43,21.78,3.51,31.51.32.52.17,1.72.94,2.52,2.37,2.46,8.09,3.16,11.57,3.46,11.73,1.01,33.33,1.07,45.04.06,1.97-.17,2.68-.43,4.43-1.04-4.16-1.62-9.53-1.17-14.06-1.63-1.56-.16-3.24-1.72-5.4-1.87-9.12-.66-19.75,2.27-28.05,2.55-2.8.09-5.57-1.53-8.46-1.06,1.78-3.55-.87-12.72,1.51-14.96,1.1-1.03,2.91-.91,3.94-2.07.89-1.01.91-3.7,2.53-4.52.93-.47,3.31,1.59,5.49,1.61,8.77.08,15.16-2.67,21.56-8.49.81-.74,7.96-9.19,8.21-9.77,1.49-3.42-.06-12.01,2.4-13.82,5.04-3.71,4.19,1.87,5.28,2.63,1.05.73,3.42.26,5.03.98,1.58.71,3.51,4.17,6.03,4.47v-32.97c0-.45,7.88.34,9-.01-1.33-5.28-7.89-3.9-9.04-4.53-.75-.4-1.95-3.85-4.61-4.16-1.41-.17-3.43,1.52-4.34.21,1.9-2.38,8.99-4.08,10.51-5.48,2.41-2.22.69-7.26,1.93-9.06.7-1.01,3.17-.75,4.05-1.95.19-.25,1.67-4.76,1.51-4.97-.82-1.06-4.93.85-5.1-5.51-.05-1.98,2.15-9.1,3.32-10.28.38-.38,9.32-3.05,10.35-3.19,3.42-.46,6.07,1.24,8.83.96,7.92-.79,21.9-9.12,26.58-15.48,1.43-1.94,1.87-2.8-1-2.5-5.56,6.38-16.06,7.62-23.99,7.99-3.33,1.84-26.72,1.2-27.93-.05-1.57-1.61,1.78-32.07.94-36.91-1.74-.24-.95,2.27-.99,3.48-.1,2.88.4,6.22-.06,8.94-.67,3.98-4.12,9.06-4.83,14.16-.59,4.28.63,8.74-1.03,12.95-.75,2.5,7.78,4.9,4.94,6.93-1.98,1.41-5.59,1.15-7.33-.44-1.11-1.01-.72-2.94-1.61-3.6-.52-.39-2.16.63-3.04.06-1.02-.66-1.15-2.84-2.7-3.39-2.62-.94-9.39,1.82-10.31.85-.65-.68,1.69-4.08-3.75-5.76-2.66-.82-6.57,1-3.12-3.57,1.04-1.38,3.47-2.24,3.79-3.27.81-2.57-2.92-4.33-2.92-4.87,0-1.19,4.29-1.53,4.98-3,1.44-3.1-3.13-2.16-4.88-5.11-4.92-8.27,3.51-5.02,3.88-5.39.42-.42-1.19-2.89-.86-4.29.38-1.61,3.13-2.57,3.66-4.4,1.94-6.59,1.21-14.31,4.71-22.26,1.32-3.01,3.94-5.33,4.73-7.26.99-2.42.48-4.72,1.66-7.33,1.15-2.51,4.39-3.64,4.9-5.09.94-2.64,1.8-5.55,2.73-8.26.65-1.88.07-4.92.88-6.11,1.28-1.88,5.53-.3,6.43-1.08.28-.24.31-2.29,1.09-3.36,5.67-7.74,4.93.9,8.45-.57,2.1-.88,1.48-3.96,3.85-5.23,5.87-3.14,8.39-1.1,13.14-1.69,1.35-.17,7.06-1.76,8.83-2.25,3.14-.88,11.83-5.6,13.31-5.75,2.54-.25,7.43,3.36,10.79,4.16,5.09,1.21,9.62,2.36,14.37,3.62,2.32.61,4.76-.05,7.31.68,5.38,1.55,22.14,17.68,23.73,23.24.66,2.3-.28,11.28,1.22,12.29.63.43,3.29-2,4.53-.04.94,1.49-.51,8.05.49,8.99.53.5,3.7-.52,4.84.16,1.05.63.87,6.08,1.65,7.84.27.62,7.33,9.68,7.93,10.06,6.1,3.92,2.76-5.84,3.55-10.04Z"/>
  <path class="st19" d="M281.27,770.2c2.1-3.33,8.85,2.96,4,2-.97-.63-2.93-1.66-4-2Z"/>
  <path class="st0" d="M285.1,772.3"/>
  <line class="st0" x1="285.47" y1="774.77" x2="285.27" y2="772.19"/>
</svg>